<svg width="55" height="55" viewBox="0 0 55 55" fill="none" xmlns="http://www.w3.org/2000/svg">
<path fill-rule="evenodd" clip-rule="evenodd" d="M26.585 0.202437C26.0649 0.442412 25.7376 0.782502 25.5159 1.31337C25.3701 1.66227 25.3499 2.8587 25.352 11.0333C25.3542 19.8667 25.3648 20.3779 25.5526 20.785C26.3131 22.4326 28.683 22.4326 29.4435 20.785C29.6315 20.3777 29.6418 19.869 29.6418 11.0099C29.6418 2.15081 29.6315 1.64207 29.4435 1.23474C28.9486 0.162585 27.671 -0.298781 26.585 0.202437ZM1.23336 25.5534C-0.448012 26.3294 -0.399242 28.7659 1.31199 29.4809C1.6609 29.6266 2.85737 29.6468 11.0322 29.6448C19.8658 29.6425 20.377 29.632 20.7842 29.4441C22.4318 28.6837 22.4318 26.3138 20.7842 25.5534C20.3768 25.3654 19.8681 25.3551 11.0088 25.3551C2.14945 25.3551 1.6407 25.3654 1.23336 25.5534ZM26.585 25.5534C24.9036 26.3294 24.9524 28.7659 26.6636 29.4809C27.4169 29.7956 28.3908 29.6268 28.9878 29.078C29.8349 28.2994 29.8349 26.6982 28.9878 25.9195C28.3687 25.3504 27.3584 25.1964 26.585 25.5534ZM34.1045 25.5534C32.4231 26.3294 32.4719 28.7659 34.1831 29.4809C34.532 29.6267 35.7337 29.6468 43.957 29.6448C52.8429 29.6425 53.3555 29.6321 53.7627 29.4441C54.2828 29.2041 54.6101 28.8641 54.8318 28.3332C55.2786 27.264 54.8058 26.0348 53.7627 25.5534C53.3554 25.3654 52.8451 25.3551 43.9336 25.3551C35.0221 25.3551 34.5119 25.3654 34.1045 25.5534ZM26.585 33.1802C26.0649 33.4201 25.7376 33.7602 25.5159 34.2911C25.3701 34.64 25.3499 35.8364 25.352 44.011C25.3542 52.8444 25.3648 53.3557 25.5526 53.7628C26.0341 54.8058 27.2633 55.2786 28.3325 54.8318C28.8634 54.6101 29.2035 54.2828 29.4435 53.7628C29.6315 53.3554 29.6418 52.8467 29.6418 43.9876C29.6418 35.1285 29.6315 34.6198 29.4435 34.2125C28.9486 33.1403 27.671 32.6789 26.585 33.1802Z" fill="url(#paint0_linear_111_10)"/>
<defs>
<linearGradient id="paint0_linear_111_10" x1="0" y1="0" x2="55.4769" y2="0.784567" gradientUnits="userSpaceOnUse">
<stop stop-color="#08BFF8"/>
<stop offset="1" stop-color="#0777C1"/>
</linearGradient>
</defs>
</svg>
