<svg width="16" height="16" viewBox="0 0 16 16" fill="none" xmlns="http://www.w3.org/2000/svg">
<path fill-rule="evenodd" clip-rule="evenodd" d="M5.35587 0.0530463C5.03494 0.167587 4.79874 0.385187 4.65168 0.701778L4.57947 0.85718L4.57049 2.70977L4.56148 4.56232L2.70878 4.57133L0.856059 4.58031L0.683969 4.66203C0.428524 4.78336 0.23328 4.97274 0.1141 5.21487C0.0196692 5.40666 0.0112525 5.44808 0.0112525 5.72162C0.0112525 5.98744 0.0210772 6.03953 0.102585 6.20554C0.274019 6.55467 0.579494 6.78131 0.969044 6.84842C1.10606 6.87201 1.92208 6.87992 3.56257 6.87354L5.95619 6.86425L6.13601 6.79163C6.48948 6.6489 6.77537 6.29605 6.84746 5.91357C6.89236 5.67532 6.89026 1.19433 6.84514 0.950227C6.77578 0.575129 6.54665 0.271334 6.20819 0.105765C5.9682 -0.0116549 5.60084 -0.0343691 5.35587 0.0530463ZM9.9535 0.0406567C9.65807 0.136989 9.40907 0.353149 9.26433 0.638954C9.13344 0.897321 9.12794 1.0245 9.13845 3.54785C9.14768 5.76352 9.15294 5.96823 9.20384 6.09772C9.32459 6.40493 9.60704 6.68738 9.91426 6.80809C10.0437 6.85896 10.2475 6.86419 12.4487 6.87313C14.091 6.8798 14.905 6.87204 15.0422 6.84842C15.4318 6.78131 15.7372 6.55467 15.9087 6.20554C15.9902 6.03953 16 5.98744 16 5.72162C16 5.44808 15.9916 5.40666 15.8972 5.21487C15.7779 4.97265 15.5825 4.78308 15.3273 4.66197L15.1552 4.58031L13.3023 4.57133L11.4493 4.56232L11.4406 2.72541C11.4319 0.907427 11.4311 0.886683 11.362 0.716389C11.2604 0.466032 11.0476 0.238546 10.8018 0.117528C10.6309 0.0334294 10.554 0.0149389 10.3415 0.00692948C10.1833 0.000984988 10.0359 0.0137813 9.9535 0.0406567ZM0.902993 9.1755C0.390633 9.29104 0.0353764 9.69884 0.00261666 10.209C-0.0324272 10.7554 0.287129 11.2242 0.804588 11.3857C0.993105 11.4445 1.09608 11.4478 2.78247 11.4478H4.56148L4.57049 13.3015L4.57947 15.1553L4.66119 15.3273C4.78253 15.5828 4.97193 15.778 5.21407 15.8972C5.40587 15.9916 5.4473 16 5.72086 16C5.9867 16 6.03879 15.9902 6.20481 15.9087C6.55397 15.7373 6.78063 15.4318 6.84774 15.0423C6.87133 14.9053 6.87925 14.0893 6.87287 12.4489L6.86357 10.0555L6.7881 9.86778C6.68485 9.61101 6.40071 9.3269 6.14392 9.22365L5.95619 9.14819L3.51564 9.14243C1.66883 9.13808 1.03322 9.14612 0.902993 9.1755ZM10.0748 9.16627C9.62462 9.25472 9.25075 9.63745 9.16379 10.0989C9.11789 10.3425 9.12099 14.8654 9.1672 15.0833C9.24505 15.4502 9.47359 15.7452 9.80644 15.9087C9.97246 15.9902 10.0246 16 10.2904 16C10.564 16 10.6053 15.9916 10.7976 15.897C11.0478 15.7738 11.2597 15.5482 11.362 15.296C11.4311 15.1258 11.4319 15.105 11.4406 13.2859L11.4493 11.4478L13.2241 11.4474C15.0614 11.447 15.1627 11.4409 15.4055 11.315C15.5959 11.2163 15.7933 11.0086 15.8972 10.7976C15.9916 10.6058 16 10.5644 16 10.2908C16 10.025 15.9902 9.97291 15.9087 9.8069C15.7406 9.46475 15.4385 9.2362 15.0621 9.16661C14.8393 9.12544 10.2843 9.1251 10.0748 9.16627Z" fill="url(#paint0_linear_1_117)"/>
<defs>
<linearGradient id="paint0_linear_1_117" x1="0" y1="0" x2="16.1387" y2="0.228238" gradientUnits="userSpaceOnUse">
<stop stop-color="#08BFF8"/>
<stop offset="1" stop-color="#0777C1"/>
</linearGradient>
</defs>
</svg>
