<svg width="13" height="13" viewBox="0 0 13 13" fill="none" xmlns="http://www.w3.org/2000/svg">
<path fill-rule="evenodd" clip-rule="evenodd" d="M7.71855 0.0222155C7.4965 0.0900364 7.27546 0.286186 7.17807 0.501837C7.10377 0.6664 7.10377 0.95561 7.17807 1.12017C7.24987 1.27917 7.42133 1.46062 7.57791 1.54327L7.70586 1.61084L8.9611 1.6181L10.2163 1.62536L8.65405 3.19238C7.40399 4.44621 7.07985 4.78476 7.03233 4.88635C6.94998 5.06234 6.9464 5.36816 7.02471 5.53831C7.10207 5.70632 7.26853 5.87652 7.4357 5.95851C7.55755 6.01826 7.60924 6.02844 7.78202 6.02679C8.14246 6.02331 8.05289 6.09766 9.80568 4.3467L11.3724 2.78164L11.3797 4.03713L11.3869 5.29262L11.4545 5.42059C11.5375 5.57792 11.7168 5.74702 11.8764 5.81848C12.0436 5.89333 12.3324 5.89427 12.4957 5.82051C12.6547 5.7487 12.8361 5.57721 12.9187 5.42059L12.9863 5.29262L12.9931 2.97797L13 0.663327L12.9448 0.515777C12.8705 0.317088 12.681 0.127184 12.4831 0.0531678C12.3373 -0.00139869 12.3317 -0.00152565 10.0595 0.000658029C8.8069 0.00185143 7.75346 0.011551 7.71855 0.0222155ZM4.9895 6.98956C4.93365 7.00797 4.84226 7.05261 4.78641 7.08877C4.73056 7.12492 3.99942 7.84109 3.16167 8.68028L1.63847 10.2061L1.62578 8.95545L1.61309 7.70482L1.54541 7.57786C1.45729 7.41256 1.28966 7.25188 1.13074 7.1804C0.957632 7.10253 0.672515 7.10095 0.504304 7.17693C0.345333 7.24873 0.163921 7.42023 0.0812878 7.57684L0.0137341 7.70482L0.00687976 10.0195L0 12.3341L0.0551904 12.4817C0.129751 12.681 0.318957 12.8702 0.518241 12.9448L0.665762 13L2.97995 12.9931L5.29414 12.9863L5.42209 12.9187C5.57867 12.836 5.75013 12.6546 5.82192 12.4956C5.89623 12.331 5.89623 12.0418 5.82192 11.8773C5.75013 11.7183 5.57867 11.5368 5.42209 11.4542L5.29414 11.3866L4.0389 11.3793L2.78364 11.3721L4.35938 9.79236C6.12022 8.02706 6.03073 8.13551 6.02994 7.7683C6.02946 7.54043 5.95411 7.355 5.799 7.19985C5.60055 7.00137 5.23882 6.90739 4.9895 6.98956Z" fill="url(#paint0_linear_1_100)"/>
<defs>
<linearGradient id="paint0_linear_1_100" x1="6.5" y1="0" x2="6.5" y2="13" gradientUnits="userSpaceOnUse">
<stop stop-color="#43A5FF"/>
<stop offset="1" stop-color="#7F43FF"/>
</linearGradient>
</defs>
</svg>
