<svg width="14" height="14" viewBox="0 0 14 14" fill="none" xmlns="http://www.w3.org/2000/svg">
<path fill-rule="evenodd" clip-rule="evenodd" d="M0.356025 0.0607803C0.20721 0.134982 0.0653099 0.296773 0.023199 0.440292C0.00348248 0.507492 -0.00390385 1.20779 0.00195225 2.45569L0.0109277 4.3681L0.0773163 4.49232C0.290372 4.89099 0.710627 5.07946 1.12067 4.96028C1.32375 4.90126 1.55573 4.70142 1.66785 4.48897C1.74613 4.34065 1.74727 4.33003 1.75657 3.67943L1.76602 3.02017L3.22795 4.47738C4.85765 6.10178 4.7885 6.04659 5.19018 6.04365C5.66821 6.04012 6.03493 5.67302 6.04099 5.19191C6.04603 4.79125 6.10141 4.86063 4.47551 3.23007L3.01802 1.76842L3.6774 1.75898C4.32813 1.74968 4.33876 1.74853 4.4871 1.67027C5.15799 1.31639 5.15984 0.437674 4.49045 0.0800516L4.36621 0.0136759L2.42399 0.00590859C0.49354 -0.00182935 0.481004 -0.00150572 0.356025 0.0607803ZM9.6103 0.0413913C9.25231 0.169082 9.00106 0.515583 9.00106 0.881619C9.00106 1.18534 9.21317 1.51219 9.51286 1.67027C9.66121 1.74853 9.67183 1.74968 10.3226 1.75898L10.9819 1.76842L9.52446 3.23007C7.90097 4.85818 7.95605 4.78928 7.95673 5.19191C7.95714 5.4372 8.03104 5.61271 8.20878 5.79038C8.38478 5.96639 8.56385 6.04182 8.80978 6.04365C9.21146 6.04659 9.14231 6.10178 10.772 4.47738L12.2339 3.02017L12.2434 3.67943C12.2527 4.33003 12.2538 4.34065 12.3321 4.48897C12.6861 5.15973 13.565 5.16158 13.9226 4.49232L13.989 4.3681L13.9977 2.4704C14.0039 1.11243 13.9967 0.538002 13.9726 0.450766C13.9281 0.289623 13.798 0.136277 13.6413 0.0604566C13.5165 -5.1979e-06 13.4827 -0.00100552 11.6182 0.000259615C10.1004 0.00128938 9.69973 0.00949803 9.6103 0.0413913ZM4.92534 7.98204C4.86059 8.00337 4.77452 8.03789 4.73406 8.05869C4.69359 8.07952 4.00923 8.74601 3.21324 9.53981L1.76602 10.9831L1.75657 10.3235C1.74727 9.67268 1.74613 9.66206 1.66785 9.51374C1.31389 8.84298 0.435009 8.84113 0.0773163 9.51039L0.0109277 9.63461V11.608V13.5814L0.0921184 13.7041C0.13676 13.7715 0.228486 13.8632 0.295963 13.9079L0.418618 13.989H2.39241H4.36621L4.49045 13.9227C4.8892 13.7096 5.07771 13.2895 4.9585 12.8795C4.89947 12.6765 4.6996 12.4445 4.4871 12.3324C4.33876 12.2542 4.32813 12.253 3.6774 12.2437L3.01802 12.2343L4.47551 10.7726C6.099 9.14453 6.04391 9.21343 6.04323 8.8108C6.04282 8.56551 5.96893 8.39001 5.79118 8.21233C5.56836 7.98952 5.19989 7.89151 4.92534 7.98204ZM8.56827 7.98369C8.18041 8.11047 7.90508 8.52697 7.95129 8.91698C7.98913 9.23659 7.99766 9.24665 9.5369 10.7874L10.9825 12.2343L10.3228 12.2437C9.67445 12.253 9.66068 12.2545 9.51604 12.3311C9.32956 12.4299 9.16788 12.5918 9.08248 12.7651C9.03113 12.8693 9.01577 12.9512 9.01577 13.1211C9.01577 13.4806 9.17942 13.7463 9.50951 13.9227L9.63375 13.989L11.5318 13.9977C12.9696 14.0042 13.4618 13.9975 13.5614 13.97C13.736 13.9217 13.9217 13.7361 13.97 13.5614C13.9975 13.4619 14.0042 12.9698 13.9977 11.5323L13.989 9.63461L13.9226 9.51039C13.8185 9.31556 13.6901 9.18784 13.5088 9.09884C13.2854 8.98915 12.9695 8.98259 12.7648 9.08345C12.5915 9.16883 12.4296 9.33047 12.3308 9.51692C12.2541 9.66153 12.2527 9.6753 12.2434 10.3235L12.2339 10.9831L10.7867 9.53778C9.21008 7.96327 9.22444 7.97513 8.87043 7.95392C8.76858 7.94783 8.63895 7.9606 8.56827 7.98369Z" fill="black"/>
<path fill-rule="evenodd" clip-rule="evenodd" d="M0.356025 0.0607803C0.20721 0.134982 0.0653099 0.296773 0.023199 0.440292C0.00348248 0.507492 -0.00390385 1.20779 0.00195225 2.45569L0.0109277 4.3681L0.0773163 4.49232C0.290372 4.89099 0.710627 5.07946 1.12067 4.96028C1.32375 4.90126 1.55573 4.70142 1.66785 4.48897C1.74613 4.34065 1.74727 4.33003 1.75657 3.67943L1.76602 3.02017L3.22795 4.47738C4.85765 6.10178 4.7885 6.04659 5.19018 6.04365C5.66821 6.04012 6.03493 5.67302 6.04099 5.19191C6.04603 4.79125 6.10141 4.86063 4.47551 3.23007L3.01802 1.76842L3.6774 1.75898C4.32813 1.74968 4.33876 1.74853 4.4871 1.67027C5.15799 1.31639 5.15984 0.437674 4.49045 0.0800516L4.36621 0.0136759L2.42399 0.00590859C0.49354 -0.00182935 0.481004 -0.00150572 0.356025 0.0607803ZM9.6103 0.0413913C9.25231 0.169082 9.00106 0.515583 9.00106 0.881619C9.00106 1.18534 9.21317 1.51219 9.51286 1.67027C9.66121 1.74853 9.67183 1.74968 10.3226 1.75898L10.9819 1.76842L9.52446 3.23007C7.90097 4.85818 7.95605 4.78928 7.95673 5.19191C7.95714 5.4372 8.03104 5.61271 8.20878 5.79038C8.38478 5.96639 8.56385 6.04182 8.80978 6.04365C9.21146 6.04659 9.14231 6.10178 10.772 4.47738L12.2339 3.02017L12.2434 3.67943C12.2527 4.33003 12.2538 4.34065 12.3321 4.48897C12.6861 5.15973 13.565 5.16158 13.9226 4.49232L13.989 4.3681L13.9977 2.4704C14.0039 1.11243 13.9967 0.538002 13.9726 0.450766C13.9281 0.289623 13.798 0.136277 13.6413 0.0604566C13.5165 -5.1979e-06 13.4827 -0.00100552 11.6182 0.000259615C10.1004 0.00128938 9.69973 0.00949803 9.6103 0.0413913ZM4.92534 7.98204C4.86059 8.00337 4.77452 8.03789 4.73406 8.05869C4.69359 8.07952 4.00923 8.74601 3.21324 9.53981L1.76602 10.9831L1.75657 10.3235C1.74727 9.67268 1.74613 9.66206 1.66785 9.51374C1.31389 8.84298 0.435009 8.84113 0.0773163 9.51039L0.0109277 9.63461V11.608V13.5814L0.0921184 13.7041C0.13676 13.7715 0.228486 13.8632 0.295963 13.9079L0.418618 13.989H2.39241H4.36621L4.49045 13.9227C4.8892 13.7096 5.07771 13.2895 4.9585 12.8795C4.89947 12.6765 4.6996 12.4445 4.4871 12.3324C4.33876 12.2542 4.32813 12.253 3.6774 12.2437L3.01802 12.2343L4.47551 10.7726C6.099 9.14453 6.04391 9.21343 6.04323 8.8108C6.04282 8.56551 5.96893 8.39001 5.79118 8.21233C5.56836 7.98952 5.19989 7.89151 4.92534 7.98204ZM8.56827 7.98369C8.18041 8.11047 7.90508 8.52697 7.95129 8.91698C7.98913 9.23659 7.99766 9.24665 9.5369 10.7874L10.9825 12.2343L10.3228 12.2437C9.67445 12.253 9.66068 12.2545 9.51604 12.3311C9.32956 12.4299 9.16788 12.5918 9.08248 12.7651C9.03113 12.8693 9.01577 12.9512 9.01577 13.1211C9.01577 13.4806 9.17942 13.7463 9.50951 13.9227L9.63375 13.989L11.5318 13.9977C12.9696 14.0042 13.4618 13.9975 13.5614 13.97C13.736 13.9217 13.9217 13.7361 13.97 13.5614C13.9975 13.4619 14.0042 12.9698 13.9977 11.5323L13.989 9.63461L13.9226 9.51039C13.8185 9.31556 13.6901 9.18784 13.5088 9.09884C13.2854 8.98915 12.9695 8.98259 12.7648 9.08345C12.5915 9.16883 12.4296 9.33047 12.3308 9.51692C12.2541 9.66153 12.2527 9.6753 12.2434 10.3235L12.2339 10.9831L10.7867 9.53778C9.21008 7.96327 9.22444 7.97513 8.87043 7.95392C8.76858 7.94783 8.63895 7.9606 8.56827 7.98369Z" fill="url(#paint0_linear_1_84)"/>
<defs>
<linearGradient id="paint0_linear_1_84" x1="7" y1="0" x2="7" y2="14" gradientUnits="userSpaceOnUse">
<stop stop-color="#43A5FF"/>
<stop offset="1" stop-color="#7F43FF"/>
</linearGradient>
</defs>
</svg>
