<svg width="479" height="160" viewBox="0 0 479 160" fill="none" xmlns="http://www.w3.org/2000/svg">
<path d="M155.841 71.201C154.833 74.5154 151.734 75.416 147.015 75.416C141.107 75.416 137.756 74.011 137.756 68.427C137.756 62.807 141.107 61.402 147.015 61.402C151.806 61.402 154.869 62.3027 155.877 65.617H166.109C164.884 57.9436 158.327 55.0975 147.015 55.0975C134.37 55.0975 127.669 58.592 127.669 68.427C127.669 78.9105 135.235 81.7205 147.015 81.7205C158.399 81.7205 164.992 79.4149 166.145 71.201H155.841ZM193.702 81.036H204.113L199.034 72.9663C201.916 71.237 203.789 68.427 203.789 65.2568C203.789 60.0331 198.709 55.8181 192.441 55.8181H169.348V81.036H178.571V74.7315H189.703L193.702 81.036ZM178.571 62.1225H190.784C192.837 62.1225 194.566 63.5275 194.566 65.2568C194.566 66.986 192.837 68.427 190.784 68.427H178.571V62.1225ZM250.469 55.0975H222.441C211.921 55.0975 206.337 58.592 206.337 68.391C206.337 78.9105 212.606 81.7205 222.441 81.7205H250.469C260.952 81.7205 266.572 78.9105 266.572 68.391C266.572 58.592 260.952 55.0975 250.469 55.0975ZM250.469 75.416H222.441C217.505 75.416 214.731 74.011 214.731 68.391C214.731 62.807 217.505 61.402 222.441 61.402H250.469C255.44 61.402 258.142 62.807 258.142 68.391C258.142 74.011 255.332 75.416 250.469 75.416ZM287.691 65.2568C287.691 65.2568 287.691 65.2568 287.655 65.2568C282.323 65.1127 278.792 65.2928 278.792 63.1673C278.792 61.402 282.179 61.402 287.511 61.402C292.987 61.402 296.337 61.402 296.337 64.212H305.596C305.596 56.5025 299.291 55.0975 287.511 55.0975C276.235 55.0975 269.462 56.5025 269.462 63.1673C269.462 69.796 276.127 70.5165 287.403 70.8408H287.439C292.77 71.0209 296.697 70.8408 296.697 73.3265C296.697 75.416 292.878 75.416 287.547 75.416C282.107 75.416 278.288 75.416 278.288 72.606H269.065C269.065 80.3155 275.766 81.7205 287.547 81.7205C298.823 81.7205 306.028 80.3155 306.028 73.3265C306.028 66.3015 298.967 65.581 287.691 65.2568ZM327.199 65.2568C327.199 65.2568 327.199 65.2568 327.163 65.2568C321.832 65.1127 318.301 65.2928 318.301 63.1673C318.301 61.402 321.687 61.402 327.019 61.402C332.495 61.402 335.846 61.402 335.846 64.212H345.104C345.104 56.5025 338.8 55.0975 327.019 55.0975C315.743 55.0975 308.97 56.5025 308.97 63.1673C308.97 69.796 315.635 70.5165 326.911 70.8408H326.947C332.279 71.0209 336.206 70.8408 336.206 73.3265C336.206 75.416 332.387 75.416 327.055 75.416C321.615 75.416 317.797 75.416 317.797 72.606H308.574C308.574 80.3155 315.275 81.7205 327.055 81.7205C338.331 81.7205 345.536 80.3155 345.536 73.3265C345.536 66.3015 338.475 65.581 327.199 65.2568ZM375.066 55.8181V65.2568H358.242V55.8181H349.019V81.036H358.242V71.5613H375.066V81.036H384.289V55.8181H375.066ZM416.049 81H426.136L411.294 55.8181H401.171L386.364 81H396.451L398.108 78.226H414.392L416.049 81ZM410.609 71.9215H401.783L406.214 64.3922L410.609 71.9215ZM437.435 81.036V55.8181H428.213V81.036H437.435ZM466.146 81.036H476.557L471.478 72.9663C474.36 71.237 476.233 68.427 476.233 65.2568C476.233 60.0331 471.153 55.8181 464.885 55.8181H441.793V81.036H451.015V74.7315H462.147L466.146 81.036ZM451.015 62.1225H463.228C465.281 62.1225 467.011 63.5275 467.011 65.2568C467.011 66.986 465.281 68.427 463.228 68.427H451.015V62.1225Z" fill="url(#paint0_linear_106_2)"/>
<path d="M139.786 95.0291C139.786 95.0291 139.786 95.0291 139.762 95.0291C136.207 94.933 133.854 95.0531 133.854 93.6361C133.854 92.4593 136.111 92.4593 139.666 92.4593C143.316 92.4593 145.55 92.4593 145.55 94.3326H151.722C151.722 89.193 147.519 88.2563 139.666 88.2563C132.148 88.2563 127.633 89.193 127.633 93.6361C127.633 98.0553 132.076 98.5356 139.594 98.7518H139.618C143.172 98.8719 145.79 98.7518 145.79 100.409C145.79 101.802 143.244 101.802 139.69 101.802C136.063 101.802 133.517 101.802 133.517 99.9286H127.369C127.369 105.068 131.836 106.005 139.69 106.005C147.207 106.005 152.011 105.068 152.011 100.409C152.011 95.7256 147.303 95.2453 139.786 95.0291ZM159.448 101.322V99.2321H189.349V95.0291H159.448V92.9156H190.286V88.7126H154.333V105.525H190.286V101.322H159.448ZM214.075 88.7366H191.668V92.9396H199.785V105.549H205.958V92.9396H214.075V88.7366ZM237.037 88.7366H214.629V92.9396H222.747V105.549H228.919V92.9396H237.037V88.7366ZM244.916 105.549V88.7366H238.768V105.549H244.916ZM265.738 88.7366V99.2321L254.546 88.7366H247.821V105.549H253.969V95.5575L264.633 105.549H271.91V88.7366H265.738ZM287.546 96.6623V100.409H292.086C291.077 101.466 289.324 101.802 286.994 101.802C283.055 101.802 280.822 100.865 280.822 97.1426C280.822 93.396 283.055 92.4593 286.994 92.4593C289.948 92.4593 291.918 92.9877 292.734 94.7889H299.627C298.642 90.0336 294.295 88.2563 286.994 88.2563C278.564 88.2563 274.097 90.586 274.097 97.1426C274.097 104.132 279.14 106.005 286.994 106.005C290.477 106.005 293.287 105.693 295.376 104.804V105.549H299.867V96.6623H287.546ZM314.191 95.0291C314.191 95.0291 314.191 95.0291 314.167 95.0291C310.613 94.933 308.259 95.0531 308.259 93.6361C308.259 92.4593 310.517 92.4593 314.071 92.4593C317.722 92.4593 319.955 92.4593 319.955 94.3326H326.128C326.128 89.193 321.925 88.2563 314.071 88.2563C306.554 88.2563 302.039 89.193 302.039 93.6361C302.039 98.0553 306.482 98.5356 313.999 98.7518H314.023C317.578 98.8719 320.196 98.7518 320.196 100.409C320.196 101.802 317.65 101.802 314.095 101.802C310.469 101.802 307.923 101.802 307.923 99.9286H301.775C301.775 105.068 306.242 106.005 314.095 106.005C321.613 106.005 326.416 105.068 326.416 100.409C326.416 95.7256 321.709 95.2453 314.191 95.0291Z" fill="white"/>
<g filter="url(#filter0_d_106_2)">
<path fill-rule="evenodd" clip-rule="evenodd" d="M78.2066 53.1779C78.0514 53.2743 77.8733 53.4652 77.8109 53.6023C77.7414 53.7547 77.6973 54.707 77.6973 56.0548V58.2579L77.407 58.3151C77.2475 58.3466 76.8793 58.4032 76.5891 58.441C76.2988 58.4789 75.5886 58.6226 75.011 58.7602C66.9807 60.6739 60.6763 66.9786 58.7627 75.0093C58.6251 75.587 58.4814 76.2972 58.4435 76.5875C58.4058 76.8778 58.3491 77.2459 58.3176 77.4055L58.2604 77.6958H56.0574C54.6981 77.6958 53.758 77.7397 53.6029 77.8103C53.0956 78.0415 53 78.3918 53 80.0179C53 81.644 53.0956 81.9943 53.6029 82.2254C53.758 82.296 54.6981 82.34 56.0574 82.34H58.2604L58.3176 82.6302C58.3491 82.7898 58.4058 83.158 58.4435 83.4482C58.4814 83.7385 58.6251 84.4487 58.7627 85.0264C60.6763 93.0571 66.9807 99.3618 75.011 101.276C75.5886 101.413 76.2988 101.557 76.5891 101.595C76.8793 101.632 77.2475 101.689 77.407 101.721L77.6973 101.778V103.981C77.6973 105.34 77.7412 106.28 77.8118 106.436C78.0429 106.943 78.3932 107.039 80.0193 107.039C81.6453 107.039 81.9956 106.943 82.2267 106.436C82.2973 106.28 82.3412 105.34 82.3412 103.981V101.778L82.6315 101.721C82.791 101.689 83.1592 101.632 83.4494 101.595C83.7397 101.557 84.4499 101.413 85.0275 101.276C93.0578 99.3618 99.3622 93.0571 101.276 85.0264C101.413 84.4487 101.557 83.7385 101.595 83.4482C101.633 83.158 101.689 82.7898 101.721 82.6302L101.778 82.34H103.981C105.34 82.34 106.28 82.296 106.436 82.2254C106.943 81.9943 107.039 81.644 107.039 80.0179C107.039 78.3918 106.943 78.0415 106.436 77.8103C106.28 77.7397 105.34 77.6958 103.981 77.6958H101.778L101.721 77.4055C101.689 77.2458 101.633 76.8778 101.595 76.5875C101.557 76.2972 101.413 75.587 101.276 75.0093C99.3622 66.9786 93.0578 60.6739 85.0275 58.7602C84.4499 58.6226 83.7397 58.4789 83.4494 58.441C83.1592 58.4032 82.791 58.3466 82.6315 58.3151L82.3412 58.2579V56.0548C82.3412 54.6954 82.2973 53.7553 82.2267 53.6001C81.9946 53.0907 81.6472 52.997 80.003 53.0001C78.78 53.0023 78.4346 53.0365 78.2066 53.1779ZM77.6973 65.236C77.6973 66.3737 77.7431 67.2314 77.8118 67.3823C78.0446 67.8933 78.3891 67.9852 80.0724 67.9852H81.6235L81.9824 67.6264L82.3412 67.2675V65.2907V63.3138L82.8953 63.3844C83.7118 63.4885 85.2407 63.9203 86.3099 64.3488C90.5211 66.0366 93.9998 69.5155 95.6875 73.7269C96.116 74.7961 96.5478 76.3251 96.6518 77.1416L96.7224 77.6958H94.7457H92.769L92.4101 78.0546L92.0513 78.4135V79.9647C92.0513 81.6481 92.1432 81.9926 92.6541 82.2254C92.8053 82.2942 93.6666 82.34 94.814 82.34H96.7224L96.6518 82.8941C96.5478 83.7106 96.116 85.2396 95.6875 86.3088C93.9998 90.5202 90.5211 93.9991 86.3099 95.6869C85.2407 96.1154 83.7118 96.5472 82.8953 96.6513L82.3412 96.7219V94.8134C82.3412 93.6659 82.2955 92.8045 82.2267 92.6534C81.9939 92.1424 81.6494 92.0505 79.9661 92.0505H78.415L78.0561 92.4094L77.6973 92.7682V94.7451V96.7219L77.1432 96.6513C76.3267 96.5472 74.7978 96.1154 73.7286 95.6869C69.5174 93.9991 66.0387 90.5202 64.351 86.3088C63.9225 85.2396 63.4908 83.7106 63.3867 82.8941L63.3161 82.34H65.2928H67.2695L67.6284 81.9811L67.9872 81.6222V80.0179V78.4135L67.6284 78.0546L67.2695 77.6958H65.2928H63.3161L63.3867 77.1416C63.4911 76.3227 63.9233 74.7939 64.3521 73.7269C66.1922 69.1488 70.0237 65.5454 74.7065 63.9892C75.7384 63.6463 76.9316 63.3638 77.407 63.3497L77.6973 63.3411V65.236Z" fill="url(#paint1_linear_106_2)"/>
</g>
<defs>
<filter id="filter0_d_106_2" x="0.462563" y="0.462563" width="159.113" height="159.113" filterUnits="userSpaceOnUse" color-interpolation-filters="sRGB">
<feFlood flood-opacity="0" result="BackgroundImageFix"/>
<feColorMatrix in="SourceAlpha" type="matrix" values="0 0 0 0 0 0 0 0 0 0 0 0 0 0 0 0 0 0 127 0" result="hardAlpha"/>
<feOffset/>
<feGaussianBlur stdDeviation="26.2687"/>
<feComposite in2="hardAlpha" operator="out"/>
<feColorMatrix type="matrix" values="0 0 0 0 1 0 0 0 0 0.208333 0 0 0 0 0.255833 0 0 0 1 0"/>
<feBlend mode="normal" in2="BackgroundImageFix" result="effect1_dropShadow_106_2"/>
<feBlend mode="normal" in="SourceGraphic" in2="effect1_dropShadow_106_2" result="shape"/>
</filter>
<linearGradient id="paint0_linear_106_2" x1="126.552" y1="53" x2="474.634" y2="102.508" gradientUnits="userSpaceOnUse">
<stop stop-color="#08BFF8"/>
<stop offset="1" stop-color="#0777C1"/>
</linearGradient>
<linearGradient id="paint1_linear_106_2" x1="80.0193" y1="53" x2="80.0193" y2="107.039" gradientUnits="userSpaceOnUse">
<stop stop-color="#FF3541"/>
<stop offset="1" stop-color="#A6222A"/>
</linearGradient>
</defs>
</svg>
