<svg width="27" height="27" viewBox="0 0 27 27" fill="none" xmlns="http://www.w3.org/2000/svg">
<path fill-rule="evenodd" clip-rule="evenodd" d="M25.1035 0.0814208C24.6995 0.187954 23.635 0.718719 23.0988 1.081C21.0407 2.47174 18.8113 4.60028 17.0378 6.86797C16.7938 7.17987 16.7713 7.22831 16.8561 7.25817C18.0449 7.67739 19.0374 8.57028 19.5355 9.66854C19.6299 9.87675 19.7224 10.0903 19.741 10.1432C19.7711 10.2287 19.8024 10.2172 20.0257 10.0386C21.9252 8.5191 24.0874 6.33689 25.3497 4.66508C26.1424 3.61532 26.7534 2.52081 26.9257 1.84214C27.1989 0.765944 26.6992 -0.0129233 25.7438 0.000162446C25.5512 0.00280071 25.2631 0.039367 25.1035 0.0814208ZM9.75184 0.713284C8.77503 0.890469 8.07608 1.11995 7.24598 1.53589C4.08269 3.12112 1.52565 6.24476 0.516821 9.75623C0.111189 11.1682 -0.0401127 12.4087 0.00889669 13.9211C0.054266 15.3223 0.226353 16.3749 0.60603 17.5743C1.64045 20.8416 3.99606 23.6869 7.06134 25.3718C8.06358 25.9227 9.31445 26.4012 10.4377 26.6635C11.3649 26.88 12.0507 26.9635 13.1545 26.9943C15.4497 27.0582 17.5332 26.5892 19.5348 25.5581C22.809 23.8713 25.3991 20.8694 26.1442 17.8976C26.2683 17.4029 26.287 17.2221 26.2879 16.5109C26.2891 15.6033 26.2266 15.2789 25.9357 14.6822C25.3497 13.4801 23.9742 12.7118 22.4082 12.7118C21.8627 12.7118 21.0448 12.6105 20.5003 12.4756C20.2321 12.4092 19.9976 12.3636 19.9792 12.3743C19.9608 12.3851 19.9296 12.5012 19.91 12.6325C19.8148 13.2667 19.3681 14.2176 18.9129 14.7548C18.009 15.8214 16.3158 16.7507 14.6508 17.0941C14.1968 17.1877 13.9789 17.2028 13.3656 17.1833C12.7315 17.163 12.5637 17.1384 12.1798 17.009C11.3589 16.7324 10.682 16.1762 10.3745 15.5256C9.94176 14.6103 10.1016 13.6625 10.8304 12.8206C10.9898 12.6366 11.1426 12.4122 11.1702 12.3219C11.1977 12.2316 11.2323 11.8491 11.2471 11.4718C11.2865 10.4671 11.4945 9.78109 11.9898 9.02217C12.5521 8.16046 13.2618 7.59782 14.2008 7.26941C14.4378 7.18652 14.6285 7.10088 14.6244 7.07909C14.6205 7.05735 14.5684 6.82581 14.5088 6.56463C14.375 5.9792 14.289 5.21415 14.2881 4.60118C14.2853 2.78342 13.3338 1.36071 11.784 0.857438C11.4258 0.741091 11.2476 0.717663 10.6223 0.704683C10.2161 0.696294 9.82438 0.700145 9.75184 0.713284ZM8.33321 5.64234C9.57179 5.87725 10.4392 7.09244 10.2375 8.30999C10.069 9.32678 9.29171 10.1145 8.28177 10.2918C7.58187 10.4147 6.76897 10.1481 6.2448 9.62385C4.95979 8.33859 5.5612 6.14535 7.32511 5.68419C7.72979 5.57839 7.94836 5.56932 8.33321 5.64234ZM7.53988 7.26387C7.16727 7.45388 7.01238 7.91726 7.1937 8.29944C7.54911 9.04855 8.69722 8.79554 8.69653 7.96829C8.69605 7.36122 8.08209 6.98733 7.53988 7.26387ZM14.8746 8.67961C14.4306 8.79902 14.0831 9.01288 13.6815 9.41395C13.0599 10.0345 12.8116 10.6822 12.8116 11.6828C12.8116 12.5987 12.597 13.1965 12.0496 13.8054C11.7802 14.1051 11.7037 14.2697 11.704 14.5488C11.7045 15.0774 12.4057 15.5656 13.2815 15.647C14.6723 15.7763 16.9957 14.7366 17.8363 13.6088C18.3506 12.9188 18.5738 11.9081 18.3981 11.0654C18.1677 9.96049 17.2211 8.95346 16.1509 8.67465C15.7759 8.57699 15.2485 8.57904 14.8746 8.67961ZM6.15353 12.003C6.76412 12.1271 7.28201 12.404 7.72473 12.8429C8.38575 13.4984 8.66678 14.1676 8.66678 15.0862C8.66678 15.9377 8.41118 16.6019 7.84506 17.2215C7.25537 17.8668 6.46441 18.2111 5.55782 18.2172C4.6775 18.223 3.93081 17.9186 3.31521 17.3029C2.71011 16.6977 2.39848 15.9442 2.39848 15.0862C2.39848 13.5675 3.40927 12.3321 4.92476 11.9984C5.35445 11.9038 5.67151 11.9049 6.15353 12.003ZM4.89838 13.6389C4.53765 13.8062 4.29703 14.0323 4.11629 14.3739C3.99717 14.5989 3.97654 14.7037 3.97591 15.0862C3.97528 15.4848 3.99248 15.5659 4.13059 15.8154C4.30442 16.1292 4.52899 16.347 4.86029 16.5231C5.04082 16.6191 5.16796 16.6415 5.53144 16.6414C5.91582 16.6413 6.01848 16.621 6.25012 16.4994C6.7897 16.2162 7.11409 15.6856 7.11409 15.0862C7.11409 14.6255 6.98162 14.3127 6.6432 13.9742C6.15701 13.4879 5.49715 13.3611 4.89838 13.6389ZM19.4648 16.7222C20.7024 16.9532 21.5788 18.1974 21.3613 19.4147C21.132 20.698 19.9244 21.5783 18.6806 21.3689C17.6609 21.1973 16.8949 20.4374 16.7125 19.4166C16.4308 17.8401 17.8757 16.4256 19.4648 16.7222ZM12.5369 18.3348C14.1578 18.6644 15.2792 20.2397 15.0311 21.8387C14.7842 23.4305 13.4964 24.5516 11.9148 24.5516C10.3331 24.5516 9.04535 23.4305 8.79845 21.8387C8.66013 20.9473 8.96305 19.9811 9.59896 19.2852C10.0488 18.7929 10.5979 18.486 11.3081 18.33C11.7381 18.2356 12.0551 18.2368 12.5369 18.3348ZM18.6093 18.3719C18.3555 18.5415 18.2344 18.7996 18.2615 19.1135C18.2872 19.4115 18.4191 19.614 18.6712 19.7426C19.015 19.918 19.4624 19.8151 19.6866 19.5092C19.7435 19.4316 19.7999 19.2535 19.8119 19.1135C19.8538 18.6276 19.5158 18.2521 19.0367 18.2521C18.8665 18.2521 18.7322 18.2897 18.6093 18.3719ZM11.3348 19.9271C10.9995 20.0454 10.5451 20.5181 10.4174 20.8814C10.2205 21.4415 10.3909 22.1605 10.8154 22.56C11.1476 22.8726 11.4155 22.9733 11.9148 22.9733C12.4141 22.9733 12.682 22.8726 13.0142 22.56C13.4387 22.1605 13.6091 21.4415 13.4122 20.8814C13.2789 20.5023 12.8305 20.0453 12.4725 19.9235C12.1516 19.8143 11.6497 19.8159 11.3348 19.9271Z" fill="url(#paint0_linear_111_6)"/>
<defs>
<linearGradient id="paint0_linear_111_6" x1="0" y1="0" x2="27.2341" y2="0.385151" gradientUnits="userSpaceOnUse">
<stop stop-color="#08BFF8"/>
<stop offset="1" stop-color="#0777C1"/>
</linearGradient>
</defs>
</svg>
