<svg width="55" height="55" viewBox="0 0 55 55" fill="none" xmlns="http://www.w3.org/2000/svg">
<path fill-rule="evenodd" clip-rule="evenodd" d="M26.2608 0.178763C25.0393 0.551073 23.9713 1.5435 23.4729 2.76945L23.2214 3.38785V14.8915C23.2214 25.6898 23.2334 26.4291 23.4162 26.9495C23.8292 28.125 24.8944 29.1934 26.0903 29.632C26.825 29.9013 28.2583 29.8756 29.0301 29.5791C30.1431 29.1515 31.0678 28.2371 31.5264 27.1106L31.7739 26.5027V14.9453V3.38785L31.5224 2.76945C30.6697 0.672452 28.3647 -0.462538 26.2608 0.178763ZM11.5837 5.66514C10.7155 5.96606 9.44663 6.97505 7.73485 8.72565C4.02635 12.5181 1.57624 17.1195 0.546056 22.2265C0.133483 24.272 0 25.6287 0 27.7779C0 32.1849 0.961768 36.1581 2.98555 40.1116C5.68898 45.3929 10.0287 49.6295 15.4268 52.2571C18.0459 53.5319 20.6665 54.3465 23.6003 54.7979C25.3451 55.0663 29.6352 55.0676 31.395 54.8003C34.28 54.362 36.9523 53.5305 39.5685 52.2571C47.2246 48.5304 52.6565 41.6083 54.4469 33.2968C54.9629 30.9009 55.141 27.4798 54.8825 24.9283C54.3698 19.8695 52.2471 14.7003 49.0389 10.6986C48.1536 9.59412 46.2932 7.69365 45.2493 6.82733C44.1409 5.90726 43.6298 5.6588 42.7441 5.60913C41.6814 5.54946 41.0169 5.8019 40.2677 6.54974C39.5293 7.28694 39.2375 8.0564 39.3266 9.03173C39.4203 10.0574 39.7555 10.5619 41.2202 11.8812C42.9041 13.398 43.8563 14.4683 44.9501 16.0741C47.3364 19.577 48.495 23.388 48.4964 27.739C48.4983 33.3795 46.3715 38.4657 42.3352 42.4741C37.0847 47.6885 29.7415 49.7253 22.4636 47.986C16.5238 46.5664 11.4378 42.4986 8.63221 36.9233C6.3158 32.3206 5.83946 26.5775 7.36547 21.6524C8.44968 18.1532 10.26 15.2274 12.8744 12.7491C15.2211 10.5245 15.3153 10.4178 15.527 9.74571C16.0347 8.1323 15.1262 6.29075 13.5611 5.76115C13.0856 5.60031 11.9322 5.54419 11.5837 5.66514Z" fill="url(#paint0_linear_111_9)"/>
<defs>
<linearGradient id="paint0_linear_111_9" x1="0" y1="0" x2="55.4769" y2="0.784567" gradientUnits="userSpaceOnUse">
<stop stop-color="#08BFF8"/>
<stop offset="1" stop-color="#0777C1"/>
</linearGradient>
</defs>
</svg>
