<svg width="17" height="16" viewBox="0 0 17 16" fill="none" xmlns="http://www.w3.org/2000/svg">
<path fill-rule="evenodd" clip-rule="evenodd" d="M6.21804 0.00153789C6.20813 0.0279465 6.1531 0.280028 6.09569 0.56172C5.68806 2.56259 5.23775 3.63072 4.50749 4.32902C3.79714 5.00828 2.65068 5.44679 0.587437 5.82842C0.292855 5.8829 0.0292375 5.93553 0.00162047 5.94539C-0.0259966 5.95521 0.30273 6.03265 0.732083 6.11741C2.77444 6.52065 3.73404 6.89113 4.4718 7.56127C5.2179 8.23899 5.68163 9.32142 6.09461 11.3492C6.15199 11.6309 6.20729 11.889 6.21754 11.9229C6.22778 11.9567 6.30082 11.6793 6.37986 11.3065C6.72003 9.7018 7.06941 8.72171 7.53492 8.0662C7.71756 7.80906 8.16643 7.37984 8.43534 7.20519C9.11572 6.76338 10.1049 6.43943 11.8016 6.10272C12.1883 6.02602 12.482 5.95528 12.4544 5.94551C12.4268 5.93578 12.0954 5.86847 11.718 5.79596C9.67151 5.40271 8.6858 5.01398 7.94918 4.30962C7.22404 3.61618 6.83338 2.70789 6.39917 0.705766C6.30943 0.292032 6.22791 -0.0248707 6.21804 0.00153789ZM13.057 8.42382C13.057 8.43163 13.0049 8.67533 12.9413 8.96534C12.4581 11.1684 11.9477 11.6567 9.64577 12.1184C9.34379 12.179 9.09118 12.2339 9.08442 12.2403C9.07766 12.2468 9.3154 12.2985 9.61273 12.3553C11.8667 12.7857 12.4623 13.3311 12.9073 15.3725C12.9738 15.6773 13.0396 15.9548 13.0535 15.9891C13.0714 16.0328 13.1013 15.947 13.1541 15.701C13.3529 14.7745 13.4839 14.3518 13.7094 13.91C14.1544 13.038 14.8034 12.692 16.6873 12.3224C16.9446 12.2719 17.0343 12.2433 16.9886 12.2262C16.9527 12.2129 16.6625 12.15 16.3438 12.0864C14.2117 11.6614 13.6412 11.0934 13.1909 8.94726C13.1013 8.52005 13.057 8.34684 13.057 8.42382Z" fill="black"/>
<path fill-rule="evenodd" clip-rule="evenodd" d="M6.21804 0.00153789C6.20813 0.0279465 6.1531 0.280028 6.09569 0.56172C5.68806 2.56259 5.23775 3.63072 4.50749 4.32902C3.79714 5.00828 2.65068 5.44679 0.587437 5.82842C0.292855 5.8829 0.0292375 5.93553 0.00162047 5.94539C-0.0259966 5.95521 0.30273 6.03265 0.732083 6.11741C2.77444 6.52065 3.73404 6.89113 4.4718 7.56127C5.2179 8.23899 5.68163 9.32142 6.09461 11.3492C6.15199 11.6309 6.20729 11.889 6.21754 11.9229C6.22778 11.9567 6.30082 11.6793 6.37986 11.3065C6.72003 9.7018 7.06941 8.72171 7.53492 8.0662C7.71756 7.80906 8.16643 7.37984 8.43534 7.20519C9.11572 6.76338 10.1049 6.43943 11.8016 6.10272C12.1883 6.02602 12.482 5.95528 12.4544 5.94551C12.4268 5.93578 12.0954 5.86847 11.718 5.79596C9.67151 5.40271 8.6858 5.01398 7.94918 4.30962C7.22404 3.61618 6.83338 2.70789 6.39917 0.705766C6.30943 0.292032 6.22791 -0.0248707 6.21804 0.00153789ZM13.057 8.42382C13.057 8.43163 13.0049 8.67533 12.9413 8.96534C12.4581 11.1684 11.9477 11.6567 9.64577 12.1184C9.34379 12.179 9.09118 12.2339 9.08442 12.2403C9.07766 12.2468 9.3154 12.2985 9.61273 12.3553C11.8667 12.7857 12.4623 13.3311 12.9073 15.3725C12.9738 15.6773 13.0396 15.9548 13.0535 15.9891C13.0714 16.0328 13.1013 15.947 13.1541 15.701C13.3529 14.7745 13.4839 14.3518 13.7094 13.91C14.1544 13.038 14.8034 12.692 16.6873 12.3224C16.9446 12.2719 17.0343 12.2433 16.9886 12.2262C16.9527 12.2129 16.6625 12.15 16.3438 12.0864C14.2117 11.6614 13.6412 11.0934 13.1909 8.94726C13.1013 8.52005 13.057 8.34684 13.057 8.42382Z" fill="url(#paint0_linear_1_57)"/>
<defs>
<linearGradient id="paint0_linear_1_57" x1="8.5" y1="0" x2="8.5" y2="16" gradientUnits="userSpaceOnUse">
<stop stop-color="#43A5FF"/>
<stop offset="1" stop-color="#7F43FF"/>
</linearGradient>
</defs>
</svg>
